<svg width="55" height="56" viewBox="0 0 55 56" fill="none" xmlns="http://www.w3.org/2000/svg">
<circle cx="27.3637" cy="28.2814" r="16.8064" transform="rotate(-24.0445 27.3637 28.2814)" fill="white" stroke="#6E965C" stroke-width="7"/>
<rect x="16.6364" y="0.59082" width="21.4545" height="5.1689" fill="#6E965C"/>
<rect x="24.7793" y="3.54492" width="5.1689" height="8.12256" fill="#6E965C"/>
<path d="M27.5229 14.2C24.8985 14.1506 22.312 14.8319 20.0525 16.1678C17.793 17.5037 15.9495 19.4416 14.7279 21.7649C13.5064 24.0882 12.955 26.7054 13.1352 29.3241C13.3155 31.9428 14.2204 34.4597 15.7488 36.5937C17.2772 38.7277 19.3689 40.3947 21.7901 41.4084C24.2114 42.4221 26.8668 42.7425 29.4597 42.3339C32.0525 41.9253 34.4807 40.8037 36.4729 39.0945C38.465 37.3854 39.9427 35.1559 40.7407 32.6553L27.2563 28.352L27.5229 14.2Z" fill="#9EC972"/>
</svg>
